# Blender v2.91.2 OBJ File: ''
# www.blender.org
mtllib bruh.mtl
o Cube
v -228.317429 -2.791559 -149.854202
v -228.317429 -6.743955 -149.887360
v -228.317429 -5.948919 226.461639
v -228.317429 -9.901315 226.428482
v 197.393265 -2.791559 -149.854202
v 197.393265 -6.743955 -149.887360
v 197.393265 -5.948919 226.461639
v 197.393265 -9.901315 226.428482
vt 0.625000 0.500000
vt 0.875000 0.500000
vt 0.875000 0.750000
vt 0.625000 0.750000
vt 0.375000 0.750000
vt 0.625000 1.000000
vt 0.375000 1.000000
vt 0.375000 0.000000
vt 0.625000 0.000000
vt 0.625000 0.250000
vt 0.375000 0.250000
vt 0.125000 0.500000
vt 0.375000 0.500000
vt 0.125000 0.750000
vn 0.0000 -1.0000 -0.0084
vn 0.0000 0.0084 -1.0000
vn -1.0000 -0.0000 0.0000
vn 0.0000 1.0000 0.0084
vn 1.0000 -0.0000 0.0000
vn 0.0000 -0.0084 1.0000
usemtl Material
s off
f 1/1/1 5/2/1 7/3/1 3/4/1
f 4/5/2 3/4/2 7/6/2 8/7/2
f 8/8/3 7/9/3 5/10/3 6/11/3
f 6/12/4 2/13/4 4/5/4 8/14/4
f 2/13/5 1/1/5 3/4/5 4/5/5
f 6/11/6 5/10/6 1/1/6 2/13/6
o Cube.001
v 16.178366 -4.757290 46.344090
v 16.178366 8.502529 46.344090
v 16.178366 -4.757290 44.380314
v 16.178366 8.502529 44.380314
v -47.467697 -4.757290 46.344090
v -47.467697 8.502529 46.344090
v -47.467697 -4.757290 44.380314
v -47.467697 8.502529 44.380314
vt 0.375000 0.000000
vt 0.375000 0.250000
vt 0.625000 0.250000
vt 0.625000 0.000000
vt 0.375000 0.500000
vt 0.625000 0.500000
vt 0.375000 0.750000
vt 0.625000 0.750000
vt 0.375000 1.000000
vt 0.625000 1.000000
vt 0.125000 0.500000
vt 0.125000 0.750000
vt 0.875000 0.750000
vt 0.875000 0.500000
vn 1.0000 0.0000 0.0000
vn 0.0000 0.0000 -1.0000
vn -1.0000 0.0000 0.0000
vn 0.0000 0.0000 1.0000
vn 0.0000 -1.0000 0.0000
vn 0.0000 1.0000 0.0000
usemtl None
s off
f 9/15/7 11/16/7 12/17/7 10/18/7
f 11/16/8 15/19/8 16/20/8 12/17/8
f 15/19/9 13/21/9 14/22/9 16/20/9
f 13/21/10 9/23/10 10/24/10 14/22/10
f 11/25/11 9/26/11 13/21/11 15/19/11
f 16/20/12 14/22/12 10/27/12 12/28/12
o Cube.002_Cube.003
v -47.314526 -4.757290 46.344090
v -47.314526 8.502529 46.344090
v -47.314526 -4.757290 44.380314
v -47.314526 8.502529 44.380314
v -110.960587 -4.757290 46.344090
v -110.960587 8.502529 46.344090
v -110.960587 -4.757290 44.380314
v -110.960587 8.502529 44.380314
vt 0.375000 0.000000
vt 0.375000 0.250000
vt 0.625000 0.250000
vt 0.625000 0.000000
vt 0.375000 0.500000
vt 0.625000 0.500000
vt 0.375000 0.750000
vt 0.625000 0.750000
vt 0.375000 1.000000
vt 0.625000 1.000000
vt 0.125000 0.500000
vt 0.125000 0.750000
vt 0.875000 0.750000
vt 0.875000 0.500000
vn 1.0000 0.0000 0.0000
vn 0.0000 0.0000 -1.0000
vn -1.0000 0.0000 0.0000
vn 0.0000 0.0000 1.0000
vn 0.0000 -1.0000 0.0000
vn 0.0000 1.0000 0.0000
usemtl None
s off
f 17/29/13 19/30/13 20/31/13 18/32/13
f 19/30/14 23/33/14 24/34/14 20/31/14
f 23/33/15 21/35/15 22/36/15 24/34/15
f 21/35/16 17/37/16 18/38/16 22/36/16
f 19/39/17 17/40/17 21/35/17 23/33/17
f 24/34/18 22/36/18 18/41/18 20/42/18
o Cube.003_Cube.004
v 14.741603 -4.757290 46.282600
v 14.741603 8.502529 46.282600
v 16.705076 -4.757290 46.316872
v 16.705076 8.502529 46.316872
v 15.852377 -4.757290 -17.353781
v 15.852377 8.502529 -17.353781
v 17.815851 -4.757290 -17.319510
v 17.815851 8.502529 -17.319510
vt 0.375000 0.000000
vt 0.375000 0.250000
vt 0.625000 0.250000
vt 0.625000 0.000000
vt 0.375000 0.500000
vt 0.625000 0.500000
vt 0.375000 0.750000
vt 0.625000 0.750000
vt 0.375000 1.000000
vt 0.625000 1.000000
vt 0.125000 0.500000
vt 0.125000 0.750000
vt 0.875000 0.750000
vt 0.875000 0.500000
vn -0.0175 0.0000 0.9998
vn 0.9998 0.0000 0.0175
vn 0.0175 0.0000 -0.9998
vn -0.9998 0.0000 -0.0175
vn 0.0000 -1.0000 0.0000
vn 0.0000 1.0000 0.0000
usemtl None
s off
f 25/43/19 27/44/19 28/45/19 26/46/19
f 27/44/20 31/47/20 32/48/20 28/45/20
f 31/47/21 29/49/21 30/50/21 32/48/21
f 29/49/22 25/51/22 26/52/22 30/50/22
f 27/53/23 25/54/23 29/49/23 31/47/23
f 32/48/24 30/50/24 26/55/24 28/56/24
o Cube.005_Cube.006
v -48.712124 -4.757290 11.253218
v -48.712124 8.502529 11.253218
v -46.748650 -4.757290 11.287489
v -46.748650 8.502529 11.287489
v -47.601349 -4.757290 -52.383163
v -47.601349 8.502529 -52.383163
v -45.637875 -4.757290 -52.348892
v -45.637875 8.502529 -52.348892
vt 0.375000 0.000000
vt 0.375000 0.250000
vt 0.625000 0.250000
vt 0.625000 0.000000
vt 0.375000 0.500000
vt 0.625000 0.500000
vt 0.375000 0.750000
vt 0.625000 0.750000
vt 0.375000 1.000000
vt 0.625000 1.000000
vt 0.125000 0.500000
vt 0.125000 0.750000
vt 0.875000 0.750000
vt 0.875000 0.500000
vn -0.0175 0.0000 0.9998
vn 0.9998 0.0000 0.0175
vn 0.0175 0.0000 -0.9998
vn -0.9998 0.0000 -0.0175
vn 0.0000 -1.0000 0.0000
vn 0.0000 1.0000 0.0000
usemtl None
s off
f 33/57/25 35/58/25 36/59/25 34/60/25
f 35/58/26 39/61/26 40/62/26 36/59/26
f 39/61/27 37/63/27 38/64/27 40/62/27
f 37/63/28 33/65/28 34/66/28 38/64/28
f 35/67/29 33/68/29 37/63/29 39/61/29
f 40/62/30 38/64/30 34/69/30 36/70/30
o Cube.006_Cube.007
v -47.599014 -4.757290 -49.564110
v -47.599014 8.502529 -49.564110
v -45.635540 -4.757290 -49.529839
v -45.635540 8.502529 -49.529839
v -46.488239 -4.757290 -113.200493
v -46.488239 8.502529 -113.200493
v -44.524765 -4.757290 -113.166222
v -44.524765 8.502529 -113.166222
vt 0.375000 0.000000
vt 0.375000 0.250000
vt 0.625000 0.250000
vt 0.625000 0.000000
vt 0.375000 0.500000
vt 0.625000 0.500000
vt 0.375000 0.750000
vt 0.625000 0.750000
vt 0.375000 1.000000
vt 0.625000 1.000000
vt 0.125000 0.500000
vt 0.125000 0.750000
vt 0.875000 0.750000
vt 0.875000 0.500000
vn -0.0175 0.0000 0.9998
vn 0.9998 0.0000 0.0175
vn 0.0175 0.0000 -0.9998
vn -0.9998 0.0000 -0.0175
vn 0.0000 -1.0000 0.0000
vn 0.0000 1.0000 0.0000
usemtl None
s off
f 41/71/31 43/72/31 44/73/31 42/74/31
f 43/72/32 47/75/32 48/76/32 44/73/32
f 47/75/33 45/77/33 46/78/33 48/76/33
f 45/77/34 41/79/34 42/80/34 46/78/34
f 43/81/35 41/82/35 45/77/35 47/75/35
f 48/76/36 46/78/36 42/83/36 44/84/36
o Cube.007_Cube.008
v 16.950209 -4.757290 -112.429070
v 16.950209 8.502529 -112.429070
v 16.950209 -4.757290 -114.392845
v 16.950209 8.502529 -114.392845
v -46.695854 -4.757290 -112.429070
v -46.695854 8.502529 -112.429070
v -46.695854 -4.757290 -114.392845
v -46.695854 8.502529 -114.392845
vt 0.375000 0.000000
vt 0.375000 0.250000
vt 0.625000 0.250000
vt 0.625000 0.000000
vt 0.375000 0.500000
vt 0.625000 0.500000
vt 0.375000 0.750000
vt 0.625000 0.750000
vt 0.375000 1.000000
vt 0.625000 1.000000
vt 0.125000 0.500000
vt 0.125000 0.750000
vt 0.875000 0.750000
vt 0.875000 0.500000
vn 1.0000 0.0000 0.0000
vn 0.0000 0.0000 -1.0000
vn -1.0000 0.0000 0.0000
vn 0.0000 0.0000 1.0000
vn 0.0000 -1.0000 0.0000
vn 0.0000 1.0000 0.0000
usemtl None
s off
f 49/85/37 51/86/37 52/87/37 50/88/37
f 51/86/38 55/89/38 56/90/38 52/87/38
f 55/89/39 53/91/39 54/92/39 56/90/39
f 53/91/40 49/93/40 50/94/40 54/92/40
f 51/95/41 49/96/41 53/91/41 55/89/41
f 56/90/42 54/92/42 50/97/42 52/98/42
o Cube.008_Cube.009
v 16.002190 -4.757290 -16.345440
v 16.002190 8.502529 -16.345440
v 17.965664 -4.757290 -16.311169
v 17.965664 8.502529 -16.311169
v 17.112965 -4.757290 -79.981827
v 17.112965 8.502529 -79.981827
v 19.076439 -4.757290 -79.947556
v 19.076439 8.502529 -79.947556
vt 0.375000 0.000000
vt 0.375000 0.250000
vt 0.625000 0.250000
vt 0.625000 0.000000
vt 0.375000 0.500000
vt 0.625000 0.500000
vt 0.375000 0.750000
vt 0.625000 0.750000
vt 0.375000 1.000000
vt 0.625000 1.000000
vt 0.125000 0.500000
vt 0.125000 0.750000
vt 0.875000 0.750000
vt 0.875000 0.500000
vn -0.0175 0.0000 0.9998
vn 0.9998 0.0000 0.0175
vn 0.0175 0.0000 -0.9998
vn -0.9998 0.0000 -0.0175
vn 0.0000 -1.0000 0.0000
vn 0.0000 1.0000 0.0000
usemtl None
s off
f 57/99/43 59/100/43 60/101/43 58/102/43
f 59/100/44 63/103/44 64/104/44 60/101/44
f 63/103/45 61/105/45 62/106/45 64/104/45
f 61/105/46 57/107/46 58/108/46 62/106/46
f 59/109/47 57/110/47 61/105/47 63/103/47
f 64/104/48 62/106/48 58/111/48 60/112/48
o Cube.009_Cube.010
v 80.413300 -4.757290 -79.354134
v 80.413300 8.502529 -79.354134
v 80.413300 -4.757290 -81.317909
v 80.413300 8.502529 -81.317909
v 16.767235 -4.757290 -79.354134
v 16.767235 8.502529 -79.354134
v 16.767235 -4.757290 -81.317909
v 16.767235 8.502529 -81.317909
vt 0.375000 0.000000
vt 0.375000 0.250000
vt 0.625000 0.250000
vt 0.625000 0.000000
vt 0.375000 0.500000
vt 0.625000 0.500000
vt 0.375000 0.750000
vt 0.625000 0.750000
vt 0.375000 1.000000
vt 0.625000 1.000000
vt 0.125000 0.500000
vt 0.125000 0.750000
vt 0.875000 0.750000
vt 0.875000 0.500000
vn 1.0000 0.0000 0.0000
vn 0.0000 0.0000 -1.0000
vn -1.0000 0.0000 0.0000
vn 0.0000 0.0000 1.0000
vn 0.0000 -1.0000 0.0000
vn 0.0000 1.0000 0.0000
usemtl None
s off
f 65/113/49 67/114/49 68/115/49 66/116/49
f 67/114/50 71/117/50 72/118/50 68/115/50
f 71/117/51 69/119/51 70/120/51 72/118/51
f 69/119/52 65/121/52 66/122/52 70/120/52
f 67/123/53 65/124/53 69/119/53 71/117/53
f 72/118/54 70/120/54 66/125/54 68/126/54
o Cube.010_Cube.011
v 80.413300 -4.757290 -112.382835
v 80.413300 8.502529 -112.382835
v 80.413300 -4.757290 -114.346611
v 80.413300 8.502529 -114.346611
v 16.767235 -4.757290 -112.382835
v 16.767235 8.502529 -112.382835
v 16.767235 -4.757290 -114.346611
v 16.767235 8.502529 -114.346611
vt 0.375000 0.000000
vt 0.375000 0.250000
vt 0.625000 0.250000
vt 0.625000 0.000000
vt 0.375000 0.500000
vt 0.625000 0.500000
vt 0.375000 0.750000
vt 0.625000 0.750000
vt 0.375000 1.000000
vt 0.625000 1.000000
vt 0.125000 0.500000
vt 0.125000 0.750000
vt 0.875000 0.750000
vt 0.875000 0.500000
vn 1.0000 0.0000 0.0000
vn 0.0000 0.0000 -1.0000
vn -1.0000 0.0000 0.0000
vn 0.0000 0.0000 1.0000
vn 0.0000 -1.0000 0.0000
vn 0.0000 1.0000 0.0000
usemtl None
s off
f 73/127/55 75/128/55 76/129/55 74/130/55
f 75/128/56 79/131/56 80/132/56 76/129/56
f 79/131/57 77/133/57 78/134/57 80/132/57
f 77/133/58 73/135/58 74/136/58 78/134/58
f 75/137/59 73/138/59 77/133/59 79/131/59
f 80/132/60 78/134/60 74/139/60 76/140/60
o Cube.011_Cube.012
v 79.635551 -4.757290 -81.734840
v 79.635551 8.502529 -81.734840
v 81.601830 -4.757290 -81.700523
v 81.601830 8.502529 -81.700523
v 76.053719 -4.757290 123.468956
v 76.053719 8.502529 123.468956
v 78.019997 -4.757290 123.503273
v 78.019997 8.502529 123.503273
vt 0.375000 0.000000
vt 0.625000 0.000000
vt 0.625000 0.250000
vt 0.375000 0.250000
vt 0.625000 0.500000
vt 0.375000 0.500000
vt 0.625000 0.750000
vt 0.375000 0.750000
vt 0.625000 1.000000
vt 0.375000 1.000000
vt 0.125000 0.500000
vt 0.125000 0.750000
vt 0.875000 0.500000
vt 0.875000 0.750000
vn 0.0175 0.0000 -0.9998
vn 0.9998 0.0000 0.0175
vn -0.0175 0.0000 0.9998
vn -0.9998 0.0000 -0.0175
vn 0.0000 -1.0000 0.0000
vn 0.0000 1.0000 0.0000
usemtl None
s off
f 81/141/61 82/142/61 84/143/61 83/144/61
f 83/144/62 84/143/62 88/145/62 87/146/62
f 87/146/63 88/145/63 86/147/63 85/148/63
f 85/148/64 86/147/64 82/149/64 81/150/64
f 83/151/65 87/146/65 85/148/65 81/152/65
f 88/145/66 84/153/66 82/154/66 86/147/66
o Cube.012_Cube.013
v 135.212158 -4.757290 -16.345440
v 135.212158 8.502529 -16.345440
v 137.175629 -4.757290 -16.311169
v 137.175629 8.502529 -16.311169
v 136.322937 -4.757290 -79.981827
v 136.322937 8.502529 -79.981827
v 138.286407 -4.757290 -79.947556
v 138.286407 8.502529 -79.947556
vt 0.375000 0.000000
vt 0.375000 0.250000
vt 0.625000 0.250000
vt 0.625000 0.000000
vt 0.375000 0.500000
vt 0.625000 0.500000
vt 0.375000 0.750000
vt 0.625000 0.750000
vt 0.375000 1.000000
vt 0.625000 1.000000
vt 0.125000 0.500000
vt 0.125000 0.750000
vt 0.875000 0.750000
vt 0.875000 0.500000
vn -0.0175 0.0000 0.9998
vn 0.9998 0.0000 0.0175
vn 0.0175 0.0000 -0.9998
vn -0.9998 0.0000 -0.0175
vn 0.0000 -1.0000 0.0000
vn 0.0000 1.0000 0.0000
usemtl None
s off
f 89/155/67 91/156/67 92/157/67 90/158/67
f 91/156/68 95/159/68 96/160/68 92/157/68
f 95/159/69 93/161/69 94/162/69 96/160/69
f 93/161/70 89/163/70 90/164/70 94/162/70
f 91/165/71 89/166/71 93/161/71 95/159/71
f 96/160/72 94/162/72 90/167/72 92/168/72
o Cube.013_Cube.014
v 78.406464 -4.757290 -112.219040
v 78.406464 8.502529 -112.219040
v 80.369751 -4.757290 -112.184776
v 80.369751 8.502529 -112.184776
v 79.084259 -4.757290 -151.049927
v 79.084259 8.502529 -151.049927
v 81.047546 -4.757290 -151.015671
v 81.047546 8.502529 -151.015671
vt 0.375000 0.000000
vt 0.375000 0.250000
vt 0.625000 0.250000
vt 0.625000 0.000000
vt 0.375000 0.500000
vt 0.625000 0.500000
vt 0.375000 0.750000
vt 0.625000 0.750000
vt 0.375000 1.000000
vt 0.625000 1.000000
vt 0.125000 0.500000
vt 0.125000 0.750000
vt 0.875000 0.750000
vt 0.875000 0.500000
vn -0.0175 0.0000 0.9998
vn 0.9998 0.0000 0.0175
vn 0.0174 0.0000 -0.9998
vn -0.9998 0.0000 -0.0175
vn 0.0000 -1.0000 0.0000
vn 0.0000 1.0000 0.0000
usemtl None
s off
f 97/169/73 99/170/73 100/171/73 98/172/73
f 99/170/74 103/173/74 104/174/74 100/171/74
f 103/173/75 101/175/75 102/176/75 104/174/75
f 101/175/76 97/177/76 98/178/76 102/176/76
f 99/179/77 97/180/77 101/175/77 103/173/77
f 104/174/78 102/176/78 98/181/78 100/182/78
o Cube.014_Cube.015
v 135.849411 -4.757290 -50.708675
v 135.849411 8.502529 -50.708675
v 135.751816 -4.757290 -48.747326
v 135.751816 8.502529 -48.747326
v 199.416855 -4.757290 -47.545666
v 199.416855 8.502529 -47.545666
v 199.319260 -4.757290 -45.584316
v 199.319260 8.502529 -45.584316
vt 0.375000 0.000000
vt 0.375000 0.250000
vt 0.625000 0.250000
vt 0.625000 0.000000
vt 0.375000 0.500000
vt 0.625000 0.500000
vt 0.375000 0.750000
vt 0.625000 0.750000
vt 0.375000 1.000000
vt 0.625000 1.000000
vt 0.125000 0.500000
vt 0.125000 0.750000
vt 0.875000 0.750000
vt 0.875000 0.500000
vn -0.9988 0.0000 -0.0497
vn -0.0497 0.0000 0.9988
vn 0.9988 0.0000 0.0497
vn 0.0497 0.0000 -0.9988
vn 0.0000 -1.0000 0.0000
vn 0.0000 1.0000 -0.0000
usemtl None
s off
f 105/183/79 107/184/79 108/185/79 106/186/79
f 107/184/80 111/187/80 112/188/80 108/185/80
f 111/187/81 109/189/81 110/190/81 112/188/81
f 109/189/82 105/191/82 106/192/82 110/190/82
f 107/193/83 105/194/83 109/189/83 111/187/83
f 112/188/84 110/190/84 106/195/84 108/196/84
o Cube.015_Cube.016
v 77.886917 -4.757299 123.684204
v 77.886917 8.502520 123.684204
v 77.852600 -4.757299 125.650482
v 77.852600 8.502520 125.650482
v -127.316879 -4.757281 120.102386
v -127.316879 8.502538 120.102386
v -127.351196 -4.757281 122.068665
v -127.351196 8.502538 122.068665
vt 0.375000 0.000000
vt 0.625000 0.000000
vt 0.625000 0.250000
vt 0.375000 0.250000
vt 0.625000 0.500000
vt 0.375000 0.500000
vt 0.625000 0.750000
vt 0.375000 0.750000
vt 0.625000 1.000000
vt 0.375000 1.000000
vt 0.125000 0.500000
vt 0.125000 0.750000
vt 0.875000 0.500000
vt 0.875000 0.750000
vn 0.9998 0.0000 0.0175
vn -0.0175 0.0000 0.9998
vn -0.9998 0.0000 -0.0175
vn 0.0175 0.0000 -0.9998
vn -0.0000 -1.0000 0.0000
vn 0.0000 1.0000 0.0000
usemtl None
s off
f 113/197/85 114/198/85 116/199/85 115/200/85
f 115/200/86 116/199/86 120/201/86 119/202/86
f 119/202/87 120/201/87 118/203/87 117/204/87
f 117/204/88 118/203/88 114/205/88 113/206/88
f 115/207/89 119/202/89 117/204/89 113/208/89
f 120/201/90 116/209/90 114/210/90 118/203/90
o Cube.016_Cube.017
v -199.506958 -4.757283 6.754938
v -199.506958 8.502536 6.754939
v -199.541290 -4.757283 8.721087
v -199.541290 8.502536 8.721087
v -47.482368 -4.757297 9.408517
v -47.482368 8.502522 9.408518
v -47.516685 -4.757297 11.374665
v -47.516685 8.502522 11.374666
vt 0.375000 0.000000
vt 0.375000 0.250000
vt 0.625000 0.250000
vt 0.625000 0.000000
vt 0.375000 0.500000
vt 0.625000 0.500000
vt 0.375000 0.750000
vt 0.625000 0.750000
vt 0.375000 1.000000
vt 0.625000 1.000000
vt 0.125000 0.500000
vt 0.125000 0.750000
vt 0.875000 0.750000
vt 0.875000 0.500000
vn -0.9998 0.0000 -0.0175
vn -0.0175 -0.0000 0.9998
vn 0.9998 0.0000 0.0175
vn 0.0175 0.0000 -0.9998
vn -0.0000 -1.0000 0.0000
vn 0.0000 1.0000 0.0000
usemtl None
s off
f 121/211/91 123/212/91 124/213/91 122/214/91
f 123/212/92 127/215/92 128/216/92 124/213/92
f 127/215/93 125/217/93 126/218/93 128/216/93
f 125/217/94 121/219/94 122/220/94 126/218/94
f 123/221/95 121/222/95 125/217/95 127/215/95
f 128/216/96 126/218/96 122/223/96 124/224/96
o Cube.004_Cube.018
v -199.506958 -4.757283 6.754938
v -199.506958 8.502536 6.754939
v -199.541290 -4.757283 8.721087
v -199.541290 8.502536 8.721087
v -47.482368 -4.757297 9.408517
v -47.482368 8.502522 9.408518
v -47.516685 -4.757297 11.374665
v -47.516685 8.502522 11.374666
vt 0.375000 0.000000
vt 0.375000 0.250000
vt 0.625000 0.250000
vt 0.625000 0.000000
vt 0.375000 0.500000
vt 0.625000 0.500000
vt 0.375000 0.750000
vt 0.625000 0.750000
vt 0.375000 1.000000
vt 0.625000 1.000000
vt 0.125000 0.500000
vt 0.125000 0.750000
vt 0.875000 0.750000
vt 0.875000 0.500000
vn -0.9998 0.0000 -0.0175
vn -0.0175 -0.0000 0.9998
vn 0.9998 0.0000 0.0175
vn 0.0175 0.0000 -0.9998
vn -0.0000 -1.0000 0.0000
vn 0.0000 1.0000 0.0000
usemtl None
s off
f 129/225/97 131/226/97 132/227/97 130/228/97
f 131/226/98 135/229/98 136/230/98 132/227/98
f 135/229/99 133/231/99 134/232/99 136/230/99
f 133/231/100 129/233/100 130/234/100 134/232/100
f 131/235/101 129/236/101 133/231/101 135/229/101
f 136/230/102 134/232/102 130/237/102 132/238/102
o Cube.017_Cube.019
v 132.028168 -4.757290 157.043900
v 132.028168 8.502529 157.043900
v 133.991638 -4.757290 157.078171
v 133.991638 8.502529 157.078171
v 133.138947 -4.757290 93.407516
v 133.138947 8.502529 93.407516
v 135.102417 -4.757290 93.441788
v 135.102417 8.502529 93.441788
vt 0.375000 0.000000
vt 0.375000 0.250000
vt 0.625000 0.250000
vt 0.625000 0.000000
vt 0.375000 0.500000
vt 0.625000 0.500000
vt 0.375000 0.750000
vt 0.625000 0.750000
vt 0.375000 1.000000
vt 0.625000 1.000000
vt 0.125000 0.500000
vt 0.125000 0.750000
vt 0.875000 0.750000
vt 0.875000 0.500000
vn -0.0174 0.0000 0.9998
vn 0.9998 0.0000 0.0175
vn 0.0175 0.0000 -0.9998
vn -0.9998 0.0000 -0.0175
vn 0.0000 -1.0000 0.0000
vn 0.0000 1.0000 0.0000
usemtl None
s off
f 137/239/103 139/240/103 140/241/103 138/242/103
f 139/240/104 143/243/104 144/244/104 140/241/104
f 143/243/105 141/245/105 142/246/105 144/244/105
f 141/245/106 137/247/106 138/248/106 142/246/106
f 139/249/107 137/250/107 141/245/107 143/243/107
f 144/244/108 142/246/108 138/251/108 140/252/108
o Cube.018_Cube.020
v -186.697678 -4.757290 157.043900
v -186.697678 8.502529 157.043900
v -184.734207 -4.757290 157.078171
v -184.734207 8.502529 157.078171
v -185.586899 -4.757290 93.407516
v -185.586899 8.502529 93.407516
v -183.623428 -4.757290 93.441788
v -183.623428 8.502529 93.441788
vt 0.375000 0.000000
vt 0.375000 0.250000
vt 0.625000 0.250000
vt 0.625000 0.000000
vt 0.375000 0.500000
vt 0.625000 0.500000
vt 0.375000 0.750000
vt 0.625000 0.750000
vt 0.375000 1.000000
vt 0.625000 1.000000
vt 0.125000 0.500000
vt 0.125000 0.750000
vt 0.875000 0.750000
vt 0.875000 0.500000
vn -0.0174 0.0000 0.9998
vn 0.9998 0.0000 0.0175
vn 0.0175 0.0000 -0.9998
vn -0.9998 0.0000 -0.0175
vn 0.0000 -1.0000 0.0000
vn 0.0000 1.0000 0.0000
usemtl None
s off
f 145/253/109 147/254/109 148/255/109 146/256/109
f 147/254/110 151/257/110 152/258/110 148/255/110
f 151/257/111 149/259/111 150/260/111 152/258/111
f 149/259/112 145/261/112 146/262/112 150/260/112
f 147/263/113 145/264/113 149/259/113 151/257/113
f 152/258/114 150/260/114 146/265/114 148/266/114
